<svg width="16" height="16" viewBox="0 0 16 16" fill="none" xmlns="http://www.w3.org/2000/svg">
<path fill-rule="evenodd" clip-rule="evenodd" d="M11.9575 11.0172L15.8041 14.8637C16.0653 15.1216 16.0653 15.5461 15.8041 15.8041C15.5428 16.0653 15.1216 16.0653 14.8604 15.8041L11.0139 11.9608C9.85142 12.9143 8.36575 13.4857 6.74286 13.4857C3.01714 13.4857 0 10.4653 0 6.74286C0 3.02041 3.01714 0 6.74286 0C10.4653 0 13.4857 3.02041 13.4857 6.74286C13.4857 8.36575 12.9111 9.85469 11.9575 11.0172ZM1.33878 6.74286C1.33878 9.7208 3.76163 12.1436 6.74286 12.1436C9.7208 12.1436 12.1469 9.7208 12.1469 6.74286C12.1469 3.76489 9.7208 1.33878 6.74286 1.33878C3.76163 1.33878 1.33878 3.76489 1.33878 6.74286Z" fill="white"/>
</svg>
